# xmcd
#
# Track frame offsets:
#	150
#	13455
#	25077
#	37050
#	49162
#	60265
#	72502
#	83200
#	95732
#	107835
#	120835
#	133102
#	143972
#	153582
#	163507
#	174720
#	186300
#	198912
#	211702
#	225877
#
# Disc length: 3178 seconds
#
# Revision: 1
# Processed by: cddbd v1.4PL0 Copyright (c) Steve Scherf et al.
# Submitted via: audiograbber 1.82.00
#
DISCID=150c6814
DTITLE=Guy Mitchell - 20 Greatest Hts
DYEAR=1900
DGENRE=Country
TTITLE0=She Wears Red Feathers
TTITLE1=Pretty Little Black Eyed Susie
TTITLE2=Feet Up
TTITLE3=Chicka Boom
TTITLE4=Cloud Lucky Seven
TTITLE5=The Cuff Of My Shirt
TTITLE6=Sippin' Soda
TTITLE7=Side By Side
TTITLE8=My Heart Cries For YOu
TTITLE9=My Shoes Keep Walking Back To You
TTITLE10=The Roving Kind
TTITLE11=Singing The Blues
TTITLE12=Knee Deep In The Blues
TTITLE13=Rock a Billy
TTITLE14=Call Rosie On The Phone
TTITLE15=Heartaches By The Number
TTITLE16=Pittsburg Pennsylvania
TTITLE17=Music Music Music
TTITLE18=Sparrow In The Treetop
TTITLE19=My Truly Truly Fair
EXTD=
EXTT0=
EXTT1=
EXTT2=
EXTT3=
EXTT4=
EXTT5=
EXTT6=
EXTT7=
EXTT8=
EXTT9=
EXTT10=
EXTT11=
EXTT12=
EXTT13=
EXTT14=
EXTT15=
EXTT16=
EXTT17=
EXTT18=
EXTT19=
PLAYORDER=
